# File produced by Open Asset Import Library (http://www.assimp.sf.net)
# (assimp v3.1.35440475)

mtllib brick.mtl

# 56 vertex positions
v  -61.4904 -65 61.4904
v  -63.972 -63.972 61.4904
v  -61.4904 -65 -61.4904
v  -63.972 -63.972 -61.4904
v  -65 -61.4904 61.4904
v  -65 -61.4904 -61.4904
v  -61.4904 -61.4904 65
v  -61.4904 -63.972 63.972
v  61.4904 -61.4904 65
v  61.4904 -63.972 63.972
v  61.4904 -65 61.4904
v  -63.972 -61.4904 63.972
v  -65 61.4904 61.4904
v  -63.972 61.4904 63.972
v  -61.4904 61.4904 65
v  -63.972 63.972 61.4904
v  -65 61.4904 -61.4904
v  -63.972 63.972 -61.4904
v  -61.4904 65 61.4904
v  -61.4904 65 -61.4904
v  -61.4904 63.972 63.972
v  61.4904 65 61.4904
v  61.4904 63.972 63.972
v  61.4904 61.4904 65
v  65 -61.4904 61.4904
v  63.972 -63.972 61.4904
v  65 -61.4904 -61.4904
v  63.972 -63.972 -61.4904
v  61.4904 -65 -61.4904
v  63.972 -61.4904 63.972
v  63.972 61.4904 63.972
v  65 61.4904 61.4904
v  63.972 63.972 61.4904
v  61.4904 65 -61.4904
v  63.972 63.972 -61.4904
v  65 61.4904 -61.4904
v  -61.4904 61.4904 -65
v  -61.4904 63.972 -63.972
v  61.4904 61.4904 -65
v  61.4904 63.972 -63.972
v  -63.972 61.4904 -63.972
v  -63.972 -61.4904 -63.972
v  -61.4904 -61.4904 -65
v  -61.4904 -63.972 -63.972
v  61.4904 -63.972 -63.972
v  61.4904 -61.4904 -65
v  63.972 61.4904 -63.972
v  63.972 -61.4904 -63.972
v  -63.5159 -63.5159 63.5159
v  -63.5159 63.5159 63.5159
v  63.5159 -63.5159 63.5159
v  63.5159 63.5159 63.5159
v  -63.5159 63.5159 -63.5159
v  -63.5159 -63.5159 -63.5159
v  63.5159 63.5159 -63.5159
v  63.5159 -63.5159 -63.5159

# 96 UV coordinates
vt 0.989859 0.989824 0
vt 0.990049 0.996713 0
vt 0.674338 0.98982 0
vt 0.674153 0.996702 0
vt 0.347056 0.331797 0
vt 0.347245 0.324916 0
vt 0.662952 0.331732 0
vt 0.662765 0.324843 0
vt 0.347169 0.65778 0
vt 0.34028 0.657965 0
vt 0.347205 0.34226 0
vt 0.340323 0.342069 0
vt 0.99674 0.990014 0
vt 0.996761 0.674118 0
vt 0.989872 0.674303 0
vt 0.340356 0.325108 0
vt 0.347161 0.009396 0
vt 0.34028 0.009212 0
vt 0.346983 0.664662 0
vt 0.662879 0.664695 0
vt 0.662689 0.657806 0
vt 0.346974 0.002507 0
vt 0.662682 0.009323 0
vt 0.66287 0.002441 0
vt 0.658902 0.990855 0
vt 0.65202 0.99067 0
vt 0.658916 0.674959 0
vt 0.652028 0.675149 0
vt 0.652205 0.997559 0
vt 0.3365 0.990652 0
vt 0.336309 0.997533 0
vt 0.66957 0.657997 0
vt 0.669614 0.342101 0
vt 0.662725 0.342285 0
vt 0.324836 0.009324 0
vt 0.331723 0.009084 0
vt 0.327124 0.324836 0
vt 0.334006 0.324971 0
vt 0.990058 0.667422 0
vt 0.674162 0.667411 0
vt 0.674352 0.6743 0
vt 0.347015 0.335371 0
vt 0.662911 0.335404 0
vt 0.324977 0.002441 0
vt 0.009089 0.004713 0
vt 0.009324 0.011601 0
vt 0.329611 0.990842 0
vt 0.336507 0.675131 0
vt 0.329626 0.674946 0
vt 0.002441 0.011465 0
vt 0.004724 0.327353 0
vt 0.011611 0.327113 0
vt 0.009324 0.34452 0
vt 0.009087 0.337632 0
vt 0.324837 0.342381 0
vt 0.324976 0.335499 0
vt 0.652218 0.668268 0
vt 0.336322 0.668242 0
vt 0.66957 0.009131 0
vt 0.669646 0.325027 0
vt 0.002441 0.344376 0
vt 0.004564 0.660265 0
vt 0.011452 0.660033 0
vt 0.667449 0.990005 0
vt 0.667471 0.674109 0
vt 0.011313 0.666915 0
vt 0.327202 0.664782 0
vt 0.326965 0.657894 0
vt 0.331725 0.34215 0
vt 0.333847 0.658038 0
vt 0.011471 0.333995 0
vt 0.327358 0.331724 0
vt 0.341493 0.330669 0
vt 0.995609 0.995577 0
vt 0.341417 0.663529 0
vt 0.657769 0.996421 0
vt 0.34141 0.003646 0
vt 0.66844 0.66356 0
vt 0.995624 0.668554 0
vt 0.330548 0.003531 0
vt 0.341454 0.336506 0
vt 0.003533 0.005891 0
vt 0.330746 0.996403 0
vt 0.668477 0.336537 0
vt 0.657781 0.669398 0
vt 0.003534 0.338805 0
vt 0.668433 0.00357 0
vt 0.005739 0.665821 0
vt 0.668587 0.995569 0
vt 0.668516 0.330593 0
vt 0.0059 0.332905 0
vt 0.330549 0.336593 0
vt 0.330758 0.66938 0
vt 0.668601 0.668547 0
vt 0.332755 0.663609 0
vt 0.332914 0.330546 0

# 56 vertex normals
vn -0.00417318 -0.999957 0.00822822
vn -0.604917 -0.796281 0.00342687
vn -0.01598 -0.999839 -0.00810472
vn -0.796281 -0.604917 -0.00342687
vn -0.999957 -0.00822822 0.00417318
vn -0.999839 -0.00810472 -0.01598
vn -0.01598 -0.00810472 0.999839
vn -0.00342687 -0.604917 0.796281
vn 0.00417318 -0.00822822 0.999957
vn 0.00342687 -0.796281 0.604917
vn 0.01598 -0.999839 0.00810472
vn -0.796281 -0.00342687 0.604917
vn -0.999839 0.00810472 0.01598
vn -0.604917 0.00342687 0.796281
vn -0.00417318 0.00822822 0.999957
vn -0.796281 0.604917 0.00342687
vn -0.999957 0.00822822 -0.00417318
vn -0.604917 0.796281 -0.00342687
vn -0.01598 0.999839 0.00810472
vn -0.00417318 0.999957 -0.00822822
vn -0.00342687 0.796281 0.604917
vn 0.00417318 0.999957 0.00822822
vn 0.00342687 0.604917 0.796281
vn 0.01598 0.00810472 0.999839
vn 0.999957 -0.00417318 0.00822822
vn 0.796281 -0.604917 0.00342687
vn 0.999839 -0.01598 -0.00810472
vn 0.604917 -0.796281 -0.00342687
vn 0.00417318 -0.999957 -0.00822822
vn 0.604917 -0.00342687 0.796281
vn 0.796281 0.00342687 0.604917
vn 0.999839 0.01598 0.00810472
vn 0.604917 0.796281 0.00342687
vn 0.01598 0.999839 -0.00810472
vn 0.796281 0.604917 -0.00342687
vn 0.999957 0.00417318 -0.00822822
vn -0.00822822 0.00417318 -0.999957
vn -0.00342687 0.604917 -0.796281
vn 0.00810472 0.01598 -0.999839
vn 0.00342687 0.796281 -0.604917
vn -0.796281 0.00342687 -0.604917
vn -0.604917 -0.00342687 -0.796281
vn -0.00810472 -0.01598 -0.999839
vn -0.00342687 -0.796281 -0.604917
vn 0.00342687 -0.604917 -0.796281
vn 0.00822822 -0.00417318 -0.999957
vn 0.604917 0.00342687 -0.796281
vn 0.796281 -0.00342687 -0.604917
vn -0.57735 -0.57735 0.57735
vn -0.57735 0.57735 0.57735
vn 0.57735 -0.57735 0.57735
vn 0.57735 0.57735 0.57735
vn -0.57735 0.57735 -0.57735
vn -0.57735 -0.57735 -0.57735
vn 0.57735 0.57735 -0.57735
vn 0.57735 -0.57735 -0.57735

# Mesh 'defaultobject_defaultobject' with 216 faces
g defaultobject_defaultobject
usemtl DefaultMaterial
f  1/1/1 2/2/2 3/3/3
f  3/3/3 2/2/2 4/4/4
f  2/5/2 5/6/5 4/7/4
f  4/7/4 5/6/5 6/8/6
f  7/9/7 8/10/8 9/11/9
f  9/11/9 8/10/8 10/12/10
f  8/13/8 1/1/1 10/14/10
f  10/14/10 1/1/1 11/15/11
f  5/6/5 12/16/12 13/17/13
f  13/17/13 12/16/12 14/18/14
f  12/19/12 7/9/7 14/20/14
f  14/20/14 7/9/7 15/21/15
f  13/17/13 16/22/16 17/23/17
f  17/23/17 16/22/16 18/24/18
f  16/25/16 19/26/19 18/27/18
f  18/27/18 19/26/19 20/28/20
f  19/26/19 21/29/21 22/30/22
f  22/30/22 21/29/21 23/31/23
f  21/32/21 15/21/15 23/33/23
f  23/33/23 15/21/15 24/34/24
f  25/35/25 26/36/26 27/37/27
f  27/37/27 26/36/26 28/38/28
f  26/39/26 11/15/11 28/40/28
f  28/40/28 11/15/11 29/41/29
f  9/11/9 30/42/30 24/34/24
f  24/34/24 30/42/30 31/43/31
f  30/44/30 25/35/25 31/45/31
f  31/45/31 25/35/25 32/46/32
f  22/30/22 33/47/33 34/48/34
f  34/48/34 33/47/33 35/49/35
f  33/50/33 32/46/32 35/51/35
f  35/51/35 32/46/32 36/52/36
f  37/53/37 38/54/38 39/55/39
f  39/55/39 38/54/38 40/56/40
f  38/57/38 20/28/20 40/58/40
f  40/58/40 20/28/20 34/48/34
f  17/23/17 41/59/41 6/8/6
f  6/8/6 41/59/41 42/60/42
f  41/61/41 37/53/37 42/62/42
f  42/62/42 37/53/37 43/63/43
f  3/3/3 44/64/44 29/41/29
f  29/41/29 44/64/44 45/65/45
f  44/66/44 43/63/43 45/67/45
f  45/67/45 43/63/43 46/68/46
f  39/55/39 47/69/47 46/68/46
f  46/68/46 47/69/47 48/70/48
f  47/71/47 36/52/36 48/72/48
f  48/72/48 36/52/36 27/37/27
f  24/34/24 15/21/15 9/11/9
f  9/11/9 15/21/15 7/9/7
f  13/17/13 17/23/17 5/6/5
f  5/6/5 17/23/17 6/8/6
f  34/48/34 20/28/20 22/30/22
f  22/30/22 20/28/20 19/26/19
f  27/37/27 36/52/36 25/35/25
f  25/35/25 36/52/36 32/46/32
f  3/3/3 29/41/29 1/1/1
f  1/1/1 29/41/29 11/15/11
f  39/55/39 46/68/46 37/53/37
f  37/53/37 46/68/46 43/63/43
f  12/16/12 5/6/5 49/73/49
f  49/73/49 5/6/5 2/5/2
f  2/2/2 1/1/1 49/74/49
f  49/74/49 1/1/1 8/13/8
f  8/10/8 7/9/7 49/75/49
f  49/75/49 7/9/7 12/19/12
f  21/29/21 19/26/19 50/76/50
f  50/76/50 19/26/19 16/25/16
f  16/22/16 13/17/13 50/77/50
f  50/77/50 13/17/13 14/18/14
f  14/20/14 15/21/15 50/78/50
f  50/78/50 15/21/15 21/32/21
f  10/14/10 11/15/11 51/79/51
f  51/79/51 11/15/11 26/39/26
f  26/36/26 25/35/25 51/80/51
f  51/80/51 25/35/25 30/44/30
f  30/42/30 9/11/9 51/81/51
f  51/81/51 9/11/9 10/12/10
f  31/45/31 32/46/32 52/82/52
f  52/82/52 32/46/32 33/50/33
f  33/47/33 22/30/22 52/83/52
f  52/83/52 22/30/22 23/31/23
f  23/33/23 24/34/24 52/84/52
f  52/84/52 24/34/24 31/43/31
f  18/27/18 20/28/20 53/85/53
f  53/85/53 20/28/20 38/57/38
f  38/54/38 37/53/37 53/86/53
f  53/86/53 37/53/37 41/61/41
f  41/59/41 17/23/17 53/87/53
f  53/87/53 17/23/17 18/24/18
f  42/62/42 43/63/43 54/88/54
f  54/88/54 43/63/43 44/66/44
f  44/64/44 3/3/3 54/89/54
f  54/89/54 3/3/3 4/4/4
f  4/7/4 6/8/6 54/90/54
f  54/90/54 6/8/6 42/60/42
f  35/51/35 36/52/36 55/91/55
f  55/91/55 36/52/36 47/71/47
f  47/69/47 39/55/39 55/92/55
f  55/92/55 39/55/39 40/56/40
f  40/58/40 34/48/34 55/93/55
f  55/93/55 34/48/34 35/49/35
f  28/40/28 29/41/29 56/94/56
f  56/94/56 29/41/29 45/65/45
f  45/67/45 46/68/46 56/95/56
f  56/95/56 46/68/46 48/70/48
f  48/72/48 27/37/27 56/96/56
f  56/96/56 27/37/27 28/38/28
f  1/1/1 2/2/2 3/3/3
f  3/3/3 2/2/2 4/4/4
f  2/5/2 5/6/5 4/7/4
f  4/7/4 5/6/5 6/8/6
f  7/9/7 8/10/8 9/11/9
f  9/11/9 8/10/8 10/12/10
f  8/13/8 1/1/1 10/14/10
f  10/14/10 1/1/1 11/15/11
f  5/6/5 12/16/12 13/17/13
f  13/17/13 12/16/12 14/18/14
f  12/19/12 7/9/7 14/20/14
f  14/20/14 7/9/7 15/21/15
f  13/17/13 16/22/16 17/23/17
f  17/23/17 16/22/16 18/24/18
f  16/25/16 19/26/19 18/27/18
f  18/27/18 19/26/19 20/28/20
f  19/26/19 21/29/21 22/30/22
f  22/30/22 21/29/21 23/31/23
f  21/32/21 15/21/15 23/33/23
f  23/33/23 15/21/15 24/34/24
f  25/35/25 26/36/26 27/37/27
f  27/37/27 26/36/26 28/38/28
f  26/39/26 11/15/11 28/40/28
f  28/40/28 11/15/11 29/41/29
f  9/11/9 30/42/30 24/34/24
f  24/34/24 30/42/30 31/43/31
f  30/44/30 25/35/25 31/45/31
f  31/45/31 25/35/25 32/46/32
f  22/30/22 33/47/33 34/48/34
f  34/48/34 33/47/33 35/49/35
f  33/50/33 32/46/32 35/51/35
f  35/51/35 32/46/32 36/52/36
f  37/53/37 38/54/38 39/55/39
f  39/55/39 38/54/38 40/56/40
f  38/57/38 20/28/20 40/58/40
f  40/58/40 20/28/20 34/48/34
f  17/23/17 41/59/41 6/8/6
f  6/8/6 41/59/41 42/60/42
f  41/61/41 37/53/37 42/62/42
f  42/62/42 37/53/37 43/63/43
f  3/3/3 44/64/44 29/41/29
f  29/41/29 44/64/44 45/65/45
f  44/66/44 43/63/43 45/67/45
f  45/67/45 43/63/43 46/68/46
f  39/55/39 47/69/47 46/68/46
f  46/68/46 47/69/47 48/70/48
f  47/71/47 36/52/36 48/72/48
f  48/72/48 36/52/36 27/37/27
f  24/34/24 15/21/15 9/11/9
f  9/11/9 15/21/15 7/9/7
f  13/17/13 17/23/17 5/6/5
f  5/6/5 17/23/17 6/8/6
f  34/48/34 20/28/20 22/30/22
f  22/30/22 20/28/20 19/26/19
f  27/37/27 36/52/36 25/35/25
f  25/35/25 36/52/36 32/46/32
f  3/3/3 29/41/29 1/1/1
f  1/1/1 29/41/29 11/15/11
f  39/55/39 46/68/46 37/53/37
f  37/53/37 46/68/46 43/63/43
f  12/16/12 5/6/5 49/73/49
f  49/73/49 5/6/5 2/5/2
f  2/2/2 1/1/1 49/74/49
f  49/74/49 1/1/1 8/13/8
f  8/10/8 7/9/7 49/75/49
f  49/75/49 7/9/7 12/19/12
f  21/29/21 19/26/19 50/76/50
f  50/76/50 19/26/19 16/25/16
f  16/22/16 13/17/13 50/77/50
f  50/77/50 13/17/13 14/18/14
f  14/20/14 15/21/15 50/78/50
f  50/78/50 15/21/15 21/32/21
f  10/14/10 11/15/11 51/79/51
f  51/79/51 11/15/11 26/39/26
f  26/36/26 25/35/25 51/80/51
f  51/80/51 25/35/25 30/44/30
f  30/42/30 9/11/9 51/81/51
f  51/81/51 9/11/9 10/12/10
f  31/45/31 32/46/32 52/82/52
f  52/82/52 32/46/32 33/50/33
f  33/47/33 22/30/22 52/83/52
f  52/83/52 22/30/22 23/31/23
f  23/33/23 24/34/24 52/84/52
f  52/84/52 24/34/24 31/43/31
f  18/27/18 20/28/20 53/85/53
f  53/85/53 20/28/20 38/57/38
f  38/54/38 37/53/37 53/86/53
f  53/86/53 37/53/37 41/61/41
f  41/59/41 17/23/17 53/87/53
f  53/87/53 17/23/17 18/24/18
f  42/62/42 43/63/43 54/88/54
f  54/88/54 43/63/43 44/66/44
f  44/64/44 3/3/3 54/89/54
f  54/89/54 3/3/3 4/4/4
f  4/7/4 6/8/6 54/90/54
f  54/90/54 6/8/6 42/60/42
f  35/51/35 36/52/36 55/91/55
f  55/91/55 36/52/36 47/71/47
f  47/69/47 39/55/39 55/92/55
f  55/92/55 39/55/39 40/56/40
f  40/58/40 34/48/34 55/93/55
f  55/93/55 34/48/34 35/49/35
f  28/40/28 29/41/29 56/94/56
f  56/94/56 29/41/29 45/65/45
f  45/67/45 46/68/46 56/95/56
f  56/95/56 46/68/46 48/70/48
f  48/72/48 27/37/27 56/96/56
f  56/96/56 27/37/27 28/38/28

